# xmcd
#
# Track frame offsets: 
#        150
#        20060
#        35560
#        49285
#        88060
#        103293
#        117015
#        139293
#
# Disc length: 2262 seconds
#
# Revision: 0
# Processed by: cddbd v1.5.2PL0 Copyright (c) Steve Scherf et al.
# Submitted via: ExactAudioCopy v0.99pb5
#
DISCID=7208d408
DTITLE=Rush  - Fly By Night - Warner Bros. 13473 (SHM)  
DYEAR=1900
DGENRE=
TTITLE0=Anthem
TTITLE1=Best I Can
TTITLE2=Beneath, Between and Behind
TTITLE3=By-Tor And The Snow Dog
TTITLE4=Fly By Night
TTITLE5=Making Memories
TTITLE6=Rivendell
TTITLE7=In The End
EXTD=
EXTT0=
EXTT1=
EXTT2=
EXTT3=
EXTT4=
EXTT5=
EXTT6=
EXTT7=
PLAYORDER=
